<?xml version="1.0" standalone="no"?>
<!DOCTYPE svg PUBLIC "-//W3C//DTD SVG 20010904//EN"
 "http://www.w3.org/TR/2001/REC-SVG-20010904/DTD/svg10.dtd">
<svg version="1.0" xmlns="http://www.w3.org/2000/svg"
 width="512.000000pt" height="512.000000pt" viewBox="0 0 512.000000 512.000000"
 preserveAspectRatio="xMidYMid meet">

<g transform="translate(0.000000,512.000000) scale(0.100000,-0.100000)"
fill="#000000" stroke="none">
<path d="M1172 4416 c-212 -52 -401 -242 -457 -461 -19 -76 -19 -212 1 -295
22 -95 78 -200 145 -274 l59 -64 -312 -4 c-300 -3 -315 -4 -355 -25 -115 -62
-155 -204 -87 -310 48 -73 113 -103 226 -103 64 0 67 -1 87 -33 52 -84 66
-255 31 -368 -31 -101 -35 -105 -135 -113 -100 -7 -149 -28 -193 -82 -59 -71
-66 -176 -17 -248 l24 -36 -24 -36 c-49 -72 -42 -177 17 -248 46 -56 81 -70
183 -76 88 -5 90 -5 112 -39 33 -49 44 -94 50 -196 6 -101 -12 -193 -48 -252
-20 -32 -23 -33 -87 -33 -113 0 -178 -30 -226 -103 -68 -105 -28 -250 85 -307
38 -20 68 -20 2091 -20 2291 0 2109 -5 2268 72 68 34 103 60 171 128 73 73 93
100 132 180 50 105 63 154 73 256 22 239 -115 513 -319 635 -31 18 -57 36 -57
39 0 3 15 14 32 25 156 90 276 248 324 425 27 99 25 264 -5 360 -39 127 -87
206 -181 300 -93 93 -184 147 -301 179 l-63 18 3 60 c5 133 -80 213 -227 213
l-68 0 -22 46 c-51 104 -52 256 -2 359 l21 43 77 4 c93 4 145 28 186 85 31 44
43 108 32 168 -8 43 -68 113 -113 132 -46 19 -3051 18 -3131 -1z m3086 -133
c31 -28 35 -56 11 -86 l-20 -27 -1478 0 c-1637 0 -1544 4 -1649 -66 -116 -76
-178 -224 -152 -358 32 -160 145 -270 307 -296 35 -6 639 -10 1513 -10 800 0
1460 -4 1466 -8 37 -24 36 -91 -1 -106 -9 -3 -691 -6 -1515 -6 -1461 0 -1499
0 -1561 20 -282 87 -422 409 -294 678 63 133 193 235 339 267 49 11 351 14
1537 14 1393 1 1478 0 1497 -16z m-310 -315 c-16 -53 -19 -83 -15 -183 3 -75
10 -136 20 -163 l16 -42 -1352 2 -1352 3 -42 22 c-131 71 -163 237 -65 345 76
84 -53 78 1463 78 l1347 0 -20 -62z m456 -803 c253 -54 429 -258 444 -515 13
-240 -131 -458 -364 -548 l-69 -27 -2048 -3 -2048 -2 -24 24 c-37 37 -31 101
12 122 10 5 934 11 2053 14 l2035 5 67 32 c85 40 151 106 191 191 29 61 32 75
32 167 0 93 -2 105 -33 167 -41 84 -128 167 -209 200 l-58 23 -2038 5 -2039 5
-19 24 c-33 41 -22 93 26 119 14 8 591 11 2020 12 1718 0 2010 -2 2069 -15z
m-32 -295 c102 -29 180 -137 179 -250 0 -76 -26 -134 -83 -185 -77 -70 84 -65
-1977 -65 l-1869 0 21 63 c16 49 21 89 21 187 1 117 -8 169 -40 248 -7 16
3689 18 3748 2z m40 -951 c248 -51 438 -287 438 -542 -1 -264 -184 -487 -447
-542 -103 -22 -4050 -22 -4092 0 -48 24 -56 81 -16 120 l24 25 1631 0 1630 0
0 70 0 70 -1481 0 c-1407 0 -1481 1 -1474 18 32 78 39 125 40 237 0 111 -9
166 -41 250 -6 14 177 15 1862 13 2083 -3 1898 3 1982 -73 118 -106 110 -296
-16 -392 -57 -43 -97 -53 -219 -53 l-103 0 0 -70 0 -70 103 0 c169 0 262 34
352 131 25 27 58 75 73 107 24 50 27 69 27 157 0 88 -3 107 -27 157 -53 114
-125 180 -235 217 l-62 21 -2011 0 c-1745 0 -2015 2 -2039 15 -48 24 -56 81
-16 120 l24 25 2020 0 c1427 0 2036 -3 2073 -11z"/>
</g>
</svg>
